<svg width="50" height="50" viewBox="0 0 50 50" fill="none" xmlns="http://www.w3.org/2000/svg">
<g clip-path="url(#clip0_3_87)">
<path d="M46.2999 0H3.70416C1.65832 0 0 1.61043 0 3.58537V46.425C0 48.3938 1.65832 50 3.70416 50H46.2979C48.3459 50 50 48.3938 50 46.425V3.58537C50 1.61043 48.3458 0 46.2999 0ZM15.1624 41.8521H7.61045V19.2833H15.1625L15.1624 41.8521ZM11.3812 16.2041H11.3312C8.79581 16.2041 7.15621 14.4583 7.15621 12.2999C7.15621 10.0811 8.8458 8.39574 11.4291 8.39574C14.0145 8.39574 15.6041 10.0811 15.652 12.2999C15.6541 14.4583 14.0166 16.2041 11.3812 16.2041ZM42.3895 41.8521H34.8521V29.7812C34.8521 26.7479 33.7438 24.6625 31.0104 24.6625C28.9125 24.6625 27.6854 26.0666 27.1459 27.4291C26.9479 27.8916 26.8958 28.5687 26.8958 29.2479V41.852H19.3396C19.3396 41.852 19.4353 21.3958 19.3396 19.2832H26.8958V22.4832C27.8875 20.9478 29.6834 18.7499 33.6937 18.7499C38.6687 18.7499 42.3895 21.977 42.3895 28.9103V41.8521ZM26.8499 22.5562C26.8562 22.5333 26.8666 22.5104 26.8936 22.4854V22.5562H26.8499Z" fill="black"/>
</g>
<defs>
<clipPath id="clip0_3_87">
<rect width="50" height="50" fill="white"/>
</clipPath>
</defs>
</svg>
